<svg height="506" fill="none" xmlns="http://www.w3.org/2000/svg" width="400" viewBox="0 0 120 506">
<path d="M189.75 379.5C189.75 414.432 161.432 442.75 126.5 442.75C91.568 442.75 63.2498 414.432 63.2498 379.5C63.2498 356.093 75.9749 335.671 94.8748 324.732V284.625C94.8748 267.159 109.034 253 126.5 253C143.966 253 158.125 267.159 158.125 284.625V324.732C177.025 335.671 189.75 356.093 189.75 379.5ZM221.375 295.839C241.054 318.138 253 347.421 253 379.5C253 449.368 196.368 506 126.5 506C126.204 506 125.898 505.999 125.602 505.997C56.1233 505.515 -0.353131 448.32 0.00166255 378.841C0.163741 347.02 12.0814 317.984 31.6247 295.839V94.875C31.6247 42.4773 74.1021 0 126.5 0C178.898 0 221.375 42.4773 221.375 94.875V295.839ZM205.562 379.5C205.562 345.563 186.419 327.922 173.937 313.777V94.875C173.937 68.7182 152.657 47.4375 126.5 47.4375C100.343 47.4375 79.0623 68.7182 79.0623 94.875V313.777C66.4795 328.036 47.6102 345.501 47.4382 379.083C47.2169 422.445 82.5845 458.26 125.931 458.561L126.5 458.563C170.095 458.563 205.562 423.095 205.562 379.5Z" fill="#BDBDBD" fill-opacity="0.15"/>
</svg>