<svg xmlns="http://www.w3.org/2000/svg" width="402" height="506">
    <path fill="#BDBDBD" fill-opacity="0.15" d="M200.5 0C66.9169 114.205 0 212.848 0 296.18C0 421.178 95.2375 502 200.5 502C305.762 502 401 421.178 401 296.18C401 212.848 334.083 114.205 200.5 0ZM95.9894 301.2C105.262 301.2 112.781 307.726 114.536 316.762C124.811 372.484 171.678 391.56 205.763 388.799C216.54 388.297 225.562 396.831 225.562 407.624C225.562 417.664 217.542 425.947 207.517 426.449C154.134 429.712 91.7288 399.09 77.4431 323.037C75.4381 311.742 84.4606 301.2 95.9894 301.2Z"/>
</svg>
