<svg width="750" height="502" viewBox="0 0 600 502" fill="none" xmlns="http://www.w3.org/2000/svg">
<path fill-rule="evenodd" clip-rule="evenodd" d="M343.472 0V132.634C375.441 156.941 396.314 194.723 396.314 237.789C396.314 310.711 337.131 369.895 264.209 369.895C191.287 369.895 132.104 310.711 132.104 237.789C132.104 194.723 152.976 156.941 184.946 132.634V0H343.472ZM290.63 52.8421H237.788V108.326C246.243 106.741 255.226 105.684 264.209 105.684C273.192 105.684 282.175 106.741 290.63 108.326V52.8421ZM0 211.368H79.2631V264.21H0V211.368ZM237.789 422.737H290.631V502H237.789V422.737ZM528.42 211.368H449.157V264.21H528.42V211.368ZM367.094 391.069L404.272 353.891L460.319 409.938L423.141 447.116L367.094 391.069ZM124.324 353.704L68.2772 409.751L105.455 446.929L161.502 390.882L124.324 353.704Z" fill="#BDBDBD" fill-opacity="0.15"/>
</svg>
