<svg width="550" height="501" fill="none" xmlns="http://www.w3.org/2000/svg">
<path d="M494.358 335.874V281.051H410.205C408.835 270.361 406.916 259.944 404.175 249.802L474.896 208.959L447.485 161.537L382.52 198.817C374.845 185.659 365.525 173.873 355.383 163.456C356.479 157.152 357.301 150.847 357.301 143.994C357.301 122.065 350.723 101.506 339.484 84.2373L384.713 39.0085L346.063 0.358398L298.915 47.506C252.864 23.1099 213.94 38.4602 196.671 47.506L149.249 0.358398L110.599 39.0085L155.828 84.2373C144.589 101.506 138.01 122.065 138.01 143.994C138.01 150.847 138.832 157.152 139.929 163.73C129.787 174.147 120.467 185.934 112.792 198.817L47.8266 161.263L20.4152 208.685L91.1366 249.528C88.3955 259.67 86.4767 270.087 85.1061 280.777H0.953125V335.6H85.1061C86.4767 346.29 88.3955 356.707 91.1366 366.849L20.4152 407.692L47.8266 455.114L112.792 418.108C142.396 467.723 191.736 500.342 247.656 500.342C303.575 500.342 352.915 467.723 382.52 418.108L447.485 455.662L474.896 408.24L404.175 367.397C406.916 357.255 408.835 346.839 410.205 336.148H494.358V335.874ZM275.067 390.697H220.244V226.228H275.067V390.697Z" fill="#BDBDBD" fill-opacity="0.15"/>
</svg>
